<?xml version="1.0" standalone="no"?>
<!DOCTYPE svg PUBLIC "-//W3C//DTD SVG 20010904//EN"
 "http://www.w3.org/TR/2001/REC-SVG-20010904/DTD/svg10.dtd">
<svg version="1.0" xmlns="http://www.w3.org/2000/svg"
 width="1024.000000pt" height="1024.000000pt" viewBox="0 0 1024.000000 1024.000000"
 preserveAspectRatio="xMidYMid meet">

<g transform="translate(0.000000,1024.000000) scale(0.100000,-0.100000)"
fill="#000000" stroke="none">
<path d="M2667 7159 c-106 -25 -239 -123 -294 -216 -111 -190 -75 -435 85
-585 103 -97 202 -132 352 -126 88 3 104 7 172 40 160 80 246 196 268 368 31
230 -123 455 -354 516 -57 15 -171 17 -229 3z"/>
<path d="M4527 5944 c-298 -54 -536 -224 -668 -477 -69 -132 -94 -220 -109
-379 -39 -404 157 -786 489 -953 138 -69 252 -95 441 -102 228 -8 384 27 544
120 90 52 241 194 223 211 -59 54 -226 204 -239 215 -15 11 -23 8 -64 -28
-116 -102 -233 -157 -358 -167 -277 -24 -527 158 -602 436 -23 88 -23 262 0
350 54 202 195 351 386 411 90 28 240 27 331 0 73 -23 159 -76 234 -143 l50
-45 137 118 137 117 -70 71 c-134 134 -286 215 -464 246 -107 18 -293 18 -398
-1z"/>
<path d="M2565 5921 c-3 -5 -170 -423 -371 -928 -201 -504 -368 -921 -370
-925 -3 -5 88 -8 203 -8 l208 0 75 195 75 195 388 0 387 0 11 -27 c5 -16 39
-103 76 -195 l65 -168 204 0 c112 0 204 2 204 6 0 7 -729 1823 -741 1846 -9
16 -27 18 -209 18 -112 0 -201 -4 -205 -9z m215 -492 c0 -8 133 -350 247 -636
4 -10 -51 -13 -257 -13 -169 0 -260 4 -258 10 2 5 59 154 128 330 111 284 140
348 140 309z"/>
<path d="M5680 4995 l0 -935 635 0 635 0 0 175 0 175 -435 0 -435 0 0 205 0
205 366 0 367 0 -6 68 c-4 37 -7 113 -7 170 l0 102 -355 0 -355 0 0 210 0 210
420 0 420 0 0 175 0 175 -625 0 -625 0 0 -935z"/>
<path d="M7220 4995 l0 -935 205 0 205 0 0 355 0 355 350 0 350 0 0 170 0 170
-350 0 -350 0 0 235 0 235 415 0 415 0 0 175 0 175 -620 0 -620 0 0 -935z"/>
</g>
</svg>
